<svg xmlns="http://www.w3.org/2000/svg" direction="ltr" width="830" height="275" viewBox="329 249 830 275" stroke-linecap="round" stroke-linejoin="round" style="background-color: rgb(249, 250, 251);" encoding="UTF-8&quot;"><g transform="matrix(1, 0, 0, 1, 361, 286)" opacity="1"><path d="M7,-0.0089 L199.1621,-0.2526 Q206.1621,-0.2615 206.1326,6.7384 L205.3271,198.3212 Q205.2977,205.3211 198.2977,205.345 L6.0821,205.9988 Q-0.9178,206.0227 -0.8677,199.0228 L0.5133,6.2547 Q0.5634,-0.7451 7.5634,-0.7419 L199.8188,-0.6535 Q206.8188,-0.6503 206.7916,6.3496 L206.0395,199.7453 Q206.0123,206.7453 199.0123,206.7344 L6.1455,206.4341 Q-0.8545,206.4232 -0.8262,199.4232 L-0.0452,5.9161 Q-0.017,-1.0839 7,-0.0089 " fill="none" stroke="#1d1d1d" stroke-width="3.5"/></g><g transform="matrix(1, 0, 0, 1, 921, 281)" opacity="1"><path d="M6.9999,-0.0378 L199.169,-1.0748 Q206.1688,-1.1126 206.1806,5.8874 L206.5063,200.0863 Q206.5181,207.0863 199.5184,207.0199 L7.7925,205.2 Q0.7928,205.1336 0.7798,198.1336 L0.4266,7.3295 Q0.4136,0.3295 7.4135,0.2814 L198.206,-1.0305 Q205.2059,-1.0786 205.2072,5.9214 L205.2423,198.3016 Q205.2435,205.3016 198.2436,205.3387 L6.7788,206.3543 Q-0.2211,206.3915 -0.2484,199.3915 L-0.9963,7.5814 Q-1.0236,0.5815 6.9999,-0.0378 " fill="none" stroke="#1d1d1d" stroke-width="3.5"/></g><g transform="matrix(1, 0, 0, 1, 539, 407)" opacity="1"><g><defs><mask id="shape_7xBp4eafJWITflDzPbyWl_clip"><rect x="-72" y="-117.30756302521007" width="540.5003050528617" height="202.28907768102766" fill="white"/><path d="M 359.44253710932554 -20.32949653613518 L 368.50030505286173 -15.01848534418241 L 359.3719504690791 -9.829733799472123" fill="none" stroke="none"/></mask></defs><g mask="url(#shape_7xBp4eafJWITflDzPbyWl_clip)"><rect x="-100" y="-100" width="540.5003050528617" height="202.28907768102766" fill="transparent" stroke="none"/><path d="M28,-17.307563025210072L368.50030505286173,-15.01848534418241" fill="none" stroke="#1d1d1d" stroke-width="3.5" stroke-dasharray="none" stroke-dashoffset="none"/></g><path d="M 359.44253710932554 -20.32949653613518 L 368.50030505286173 -15.01848534418241 L 359.3719504690791 -9.829733799472123" fill="none" stroke="#1d1d1d" stroke-width="3.5"/></g></g><g transform="matrix(1, 0, 0, 1, 968.1539, 352.7648) scale(1.6543967280163598, 1.6543967280163598)" opacity="1"><g><text font-size="36px" font-family="'tldraw_draw', sans-serif" font-style="normal" font-weight="normal" line-height="48.6px" dominant-baseline="mathematical" alignment-baseline="mathematical" stroke="rgb(249, 250, 251)" stroke-width="2px" fill="rgb(249, 250, 251)"><tspan alignment-baseline="mathematical" x="0px" y="16.5px">출력</tspan></text><text font-size="36px" font-family="'tldraw_draw', sans-serif" font-style="normal" font-weight="normal" line-height="48.6px" dominant-baseline="mathematical" alignment-baseline="mathematical" stroke="none" stroke-width="2px" fill="#1d1d1d"><tspan alignment-baseline="mathematical" x="0px" y="16.5px">출력</tspan></text></g></g><g transform="matrix(1, 0, 0, 1, 361, 286)" opacity="1"><path d="M6.9999,0.034 L199.2116,0.9671 Q206.2115,1.0011 206.178,8.001 L205.2677,197.8678 Q205.2341,204.8677 198.2342,204.9054 L7.5695,205.9308 Q0.5696,205.9685 0.5177,198.9687 L-0.9011,7.5396 Q-0.9529,0.5398 6.0471,0.5487 L198.9127,0.7955 Q205.9127,0.8044 205.9438,7.8044 L206.7888,198.1909 Q206.8199,205.1908 199.8202,205.2557 L7.4679,207.038 Q0.4682,207.1028 0.4155,200.103 L-1.0458,6.1219 Q-1.0985,-0.8779 6.9999,0.034 " fill="none" stroke="#1d1d1d" stroke-width="3.5"/></g><g transform="matrix(1, 0, 0, 1, 408.1539, 352.7648) scale(1.6543967280163598, 1.6543967280163598)" opacity="1"><g><text font-size="36px" font-family="'tldraw_draw', sans-serif" font-style="normal" font-weight="normal" line-height="48.6px" dominant-baseline="mathematical" alignment-baseline="mathematical" stroke="rgb(249, 250, 251)" stroke-width="2px" fill="rgb(249, 250, 251)"><tspan alignment-baseline="mathematical" x="0px" y="16.5px">입력</tspan></text><text font-size="36px" font-family="'tldraw_draw', sans-serif" font-style="normal" font-weight="normal" line-height="48.6px" dominant-baseline="mathematical" alignment-baseline="mathematical" stroke="none" stroke-width="2px" fill="#1d1d1d"><tspan alignment-baseline="mathematical" x="0px" y="16.5px">입력</tspan></text></g></g></svg>