<svg xmlns="http://www.w3.org/2000/svg" direction="ltr" width="925.81" height="450.06" viewBox="57.93 114.45 925.81 450.06" stroke-linecap="round" stroke-linejoin="round" style="background-color: rgb(249, 250, 251);"><g transform="matrix(1, 0, 0, 1, 89.93, 148.87)" opacity="1"><path d="M6.9999,0.0277 L180.2685,0.714 Q187.2684,0.7417 187.23,7.7417 L186.5378,170.8016 Q186.5077,177.8016 179.50,177.7499 L6.5962,176.474 Q-0.4036,176.4223 -0.4115,169.4223 L-0.595,6.0625 Q-0.6028,-0.9375 6.39,-0.9164 L180.1622,-0.3924 Q187.1622,-0.3713 187.12,6.6286 L186.243,171.0304 Q186.2055,178.0303 179.20,178.009 L7.5133,177.4875 Q0.5133,177.4663 0.51,170.4663 L0.5189,6.8912 Q0.5192,-0.1088 6.99,0.0277 " fill="none" stroke="#1d1d1d" stroke-width="3.5"/></g><g transform="matrix(1, 0, 0, 1, 434.18, 146.45)" opacity="1"><path d="M7,-0.0108 L179.9165,-0.2766 Q186.9165,-0.2873 186.96,6.7125 L188.0815,171.6876 Q188.1289,178.6874 181.12,178.6342 L6.8594,177.3098 Q-0.1404,177.2566 -0.1391,170.2566 L-0.1104,7.713 Q-0.1092,0.713 6.89,0.7101 L181.3628,0.6371 Q188.3628,0.6341 188.28,7.6337 L186.4047,170.7452 Q186.3241,177.7447 179.32,177.7775 L6.1314,178.5894 Q-0.8685,178.6222 -0.8797,171.6222 L-1.145,6.4537 Q-1.1563,-0.5463 7,-0.0108 " fill="none" stroke="#1d1d1d" stroke-width="3.5"/></g><g transform="matrix(1, 0, 0, 1, 183.27, 236.75)" opacity="1"><g><defs><mask id="shape_l_Yt8i8KNZ4R4XDUKAEsA_clip"><rect x="-6.0605926513671875" y="-100.76069926907374" width="343.46" height="201.01" fill="white"/><path d="M 228.27 -5.946533236165585 L 237.40 -0.760699269073734 L 228.35 4.55" fill="none" stroke="none"/></mask></defs><g mask="url(#shape_l_Yt8i8KNZ4R4XDUKAEsA_clip)"><rect x="-100" y="-100" width="343.46" height="201.01" fill="transparent" stroke="none"/><path d="M93.93940734863281,0.24965823763153594L237.40938473403077,-0.760699269073734" fill="none" stroke="#1d1d1d" stroke-width="3.5" stroke-dasharray="none" stroke-dashoffset="none"/></g><path d="M 228.27 -5.946533236165585 L 237.40 -0.760699269073734 L 228.35 4.55" fill="none" stroke="#1d1d1d" stroke-width="3.5"/></g></g><g transform="matrix(1, 0, 0, 1, 95.60, 175.64) scale(0.9334892750801949, 0.93)" opacity="1"><g><text font-size="36px" font-family="'tldraw_draw', sans-serif" font-style="normal" font-weight="normal" line-height="48.6px" dominant-baseline="mathematical" alignment-baseline="mathematical" stroke="rgb(249, 250, 251)" stroke-width="2px" fill="rgb(249, 250, 251)"><tspan alignment-baseline="mathematical" x="9.53515625px" y="18.1591796875px">language</tspan><tspan alignment-baseline="mathematical" x="180.4638671875px" y="18.1591796875px"> </tspan><tspan alignment-baseline="mathematical" x="0px" y="66.7568359375px">
</tspan><tspan alignment-baseline="mathematical" x="88.8251953125px" y="66.7568359375px">  </tspan><tspan alignment-baseline="mathematical" x="0px" y="115.35546875px">
</tspan><tspan alignment-baseline="mathematical" x="0.6435546875px" y="115.35546875px">"ko"</tspan><tspan alignment-baseline="mathematical" x="77.537109375px" y="115.35546875px"> </tspan><tspan alignment-baseline="mathematical" x="89.8857421875px" y="115.35546875px">|</tspan><tspan alignment-baseline="mathematical" x="101.36328125px" y="115.35546875px"> </tspan><tspan alignment-baseline="mathematical" x="113.7119140625px" y="115.35546875px">"en"</tspan></text><text font-size="36px" font-family="'tldraw_draw', sans-serif" font-style="normal" font-weight="normal" line-height="48.6px" dominant-baseline="mathematical" alignment-baseline="mathematical" stroke="none" stroke-width="2px" fill="#1d1d1d"><tspan alignment-baseline="mathematical" x="9.53515625px" y="18.1591796875px">language</tspan><tspan alignment-baseline="mathematical" x="180.4638671875px" y="18.1591796875px"> </tspan><tspan alignment-baseline="mathematical" x="0px" y="66.7568359375px">
</tspan><tspan alignment-baseline="mathematical" x="88.8251953125px" y="66.7568359375px">  </tspan><tspan alignment-baseline="mathematical" x="0px" y="115.35546875px">
</tspan><tspan alignment-baseline="mathematical" x="0.6435546875px" y="115.35546875px">"ko"</tspan><tspan alignment-baseline="mathematical" x="77.537109375px" y="115.35546875px"> </tspan><tspan alignment-baseline="mathematical" x="89.8857421875px" y="115.35546875px">|</tspan><tspan alignment-baseline="mathematical" x="101.36328125px" y="115.35546875px"> </tspan><tspan alignment-baseline="mathematical" x="113.7119140625px" y="115.35546875px">"en"</tspan></text></g></g><g transform="matrix(1, 0, 0, 1, 461.00, 167.16) scale(0.9625875864089964, 0.96)" opacity="1"><g><text font-size="36px" font-family="'tldraw_draw', sans-serif" font-style="normal" font-weight="normal" line-height="48.6px" dominant-baseline="mathematical" alignment-baseline="mathematical" stroke="rgb(249, 250, 251)" stroke-width="2px" fill="rgb(249, 250, 251)"><tspan alignment-baseline="mathematical" x="0.7666015625px" y="18.1591796875px">arti</tspan><tspan alignment-baseline="mathematical" x="69.5546875px" y="18.1591796875px"> </tspan><tspan alignment-baseline="mathematical" x="81.9033203125px" y="18.1591796875px">list</tspan><tspan alignment-baseline="mathematical" x="139.22265625px" y="18.1591796875px"> </tspan><tspan alignment-baseline="mathematical" x="0px" y="66.7568359375px">
</tspan><tspan alignment-baseline="mathematical" x="63.8251953125px" y="66.7568359375px">  </tspan><tspan alignment-baseline="mathematical" x="0px" y="115.35546875px">
</tspan><tspan alignment-baseline="mathematical" x="15.6904296875px" y="115.35546875px">Arti[]</tspan></text><text font-size="36px" font-family="'tldraw_draw', sans-serif" font-style="normal" font-weight="normal" line-height="48.6px" dominant-baseline="mathematical" alignment-baseline="mathematical" stroke="none" stroke-width="2px" fill="#1d1d1d"><tspan alignment-baseline="mathematical" x="0.7666015625px" y="18.1591796875px">arti</tspan><tspan alignment-baseline="mathematical" x="69.5546875px" y="18.1591796875px"> </tspan><tspan alignment-baseline="mathematical" x="81.9033203125px" y="18.1591796875px">list</tspan><tspan alignment-baseline="mathematical" x="139.22265625px" y="18.1591796875px"> </tspan><tspan alignment-baseline="mathematical" x="0px" y="66.7568359375px">
</tspan><tspan alignment-baseline="mathematical" x="63.8251953125px" y="66.7568359375px">  </tspan><tspan alignment-baseline="mathematical" x="0px" y="115.35546875px">
</tspan><tspan alignment-baseline="mathematical" x="15.6904296875px" y="115.35546875px">Arti[]</tspan></text></g></g><g transform="matrix(1, 0, 0, 1, 429.93, 354.93)" opacity="1"><path d="M7,-0.0249 L181.2702,-0.6438 Q188.2702,-0.6687 188.25,6.3313 L187.9451,171.2456 Q187.9319,178.2456 180.93,178.2184 L7.7624,177.5438 Q0.7624,177.5166 0.74,170.5166 L0.3346,6.0425 Q0.3171,-0.9575 7.31,-0.9107 L180.1747,0.2435 Q187.1746,0.2902 187.21,7.2901 L188.1735,171.5687 Q188.2143,178.5686 181.21,178.5241 L7.7028,177.4223 Q0.703,177.3778 0.66,170.3779 L-0.22,6.9543 Q-0.2579,-0.0456 7,-0.0249 " fill="none" stroke="#1d1d1d" stroke-width="3.5"/></g><g transform="matrix(1, 0, 0, 1, 437.14, 381.71) scale(0.9334892750801949, 0.93)" opacity="1"><g><text font-size="36px" font-family="'tldraw_draw', sans-serif" font-style="normal" font-weight="normal" line-height="48.6px" dominant-baseline="mathematical" alignment-baseline="mathematical" stroke="rgb(249, 250, 251)" stroke-width="2px" fill="rgb(249, 250, 251)"><tspan alignment-baseline="mathematical" x="0.7958984375px" y="18.1591796875px">user</tspan><tspan alignment-baseline="mathematical" x="80.2470703125px" y="18.1591796875px"> </tspan><tspan alignment-baseline="mathematical" x="92.5947265625px" y="18.1591796875px">input</tspan><tspan alignment-baseline="mathematical" x="186.203125px" y="18.1591796875px"> </tspan><tspan alignment-baseline="mathematical" x="0px" y="66.7568359375px">
</tspan><tspan alignment-baseline="mathematical" x="87.3203125px" y="66.7568359375px">  </tspan><tspan alignment-baseline="mathematical" x="0px" y="115.35546875px">
</tspan><tspan alignment-baseline="mathematical" x="60.0859375px" y="115.35546875px">"강"</tspan></text><text font-size="36px" font-family="'tldraw_draw', sans-serif" font-style="normal" font-weight="normal" line-height="48.6px" dominant-baseline="mathematical" alignment-baseline="mathematical" stroke="none" stroke-width="2px" fill="#1d1d1d"><tspan alignment-baseline="mathematical" x="0.7958984375px" y="18.1591796875px">user</tspan><tspan alignment-baseline="mathematical" x="80.2470703125px" y="18.1591796875px"> </tspan><tspan alignment-baseline="mathematical" x="92.5947265625px" y="18.1591796875px">input</tspan><tspan alignment-baseline="mathematical" x="186.203125px" y="18.1591796875px"> </tspan><tspan alignment-baseline="mathematical" x="0px" y="66.7568359375px">
</tspan><tspan alignment-baseline="mathematical" x="87.3203125px" y="66.7568359375px">  </tspan><tspan alignment-baseline="mathematical" x="0px" y="115.35546875px">
</tspan><tspan alignment-baseline="mathematical" x="60.0859375px" y="115.35546875px">"강"</tspan></text></g></g><g transform="matrix(1, 0, 0, 1, 764.48, 238.57)" opacity="1"><path d="M7,0.0146 L180.9935,0.3787 Q187.9935,0.3933 187.96,7.3932 L187.2631,170.5622 Q187.233,177.5622 180.23,177.5651 L7.2344,177.6383 Q0.2344,177.6412 0.21,170.6413 L-0.344,7.4888 Q-0.3678,0.4888 6.63,0.4604 L179.3517,-0.2412 Q186.3516,-0.2696 186.39,6.7302 L187.3773,170.9556 Q187.4192,177.9554 180.41,177.9007 L7.5734,176.5491 Q0.5736,176.4943 0.55,169.4943 L0.2241,8.0518 Q0.2096,1.0518 7,0.0146 " fill="none" stroke="#1d1d1d" stroke-width="3.5"/></g><g transform="matrix(1, 0, 0, 1, 626.90, 453.72)" opacity="1"><g><defs><mask id="shape_lZM3WWEOCKMIglZy76b5R_clip"><rect x="-115.75569820635303" y="-187.40185357558232" width="340.65" height="251.54" fill="white"/><path d="M 114.55 -89.20221002952923 L 124.89 -87.40185357558234 L 118.16 -79.34343048990385" fill="none" stroke="none"/></mask></defs><g mask="url(#shape_lZM3WWEOCKMIglZy76b5R_clip)"><rect x="-100" y="-100" width="340.65" height="251.54" fill="transparent" stroke="none"/><path d="M-15.755698206353031,-35.853633950156336L124.89998020023891,-87.40185357558234" fill="none" stroke="#1d1d1d" stroke-width="3.5" stroke-dasharray="none" stroke-dashoffset="none"/></g><path d="M 114.55 -89.20221002952923 L 124.89 -87.40185357558234 L 118.16 -79.34343048990385" fill="none" stroke="#1d1d1d" stroke-width="3.5"/></g></g><g transform="matrix(1, 0, 0, 1, 866.30, 28.27)" opacity="1"><g><defs><mask id="shape_7UXX6wt_YpGEBNywW2qVg_clip"><rect x="-371.0621005919238" y="127.37" width="356.21" height="242.61" fill="white"/><path d="M -122.2330398554403 262.53 L -114.84214955104363 269.99 L -124.99658497891832 272.66" fill="none" stroke="none"/></mask></defs><g mask="url(#shape_7UXX6wt_YpGEBNywW2qVg_clip)"><rect x="-100" y="-100" width="356.21" height="242.61" fill="transparent" stroke="none"/><path d="M-271.0621005919238,227.37360786502205L-114.84214955104363,269.99250916070554" fill="none" stroke="#1d1d1d" stroke-width="3.5" stroke-dasharray="none" stroke-dashoffset="none"/></g><path d="M -122.2330398554403 262.53 L -114.84214955104363 269.99 L -124.99658497891832 272.66" fill="none" stroke="#1d1d1d" stroke-width="3.5"/></g></g><g transform="matrix(1, 0, 0, 1, 808.38, 265.34) scale(0.9334892750801949, 0.93)" opacity="1"><g><text font-size="36px" font-family="'tldraw_draw', sans-serif" font-style="normal" font-weight="normal" line-height="48.6px" dominant-baseline="mathematical" alignment-baseline="mathematical" stroke="rgb(249, 250, 251)" stroke-width="2px" fill="rgb(249, 250, 251)"><tspan alignment-baseline="mathematical" x="0.6064453125px" y="18.2578125px">result</tspan></text><text font-size="36px" font-family="'tldraw_draw', sans-serif" font-style="normal" font-weight="normal" line-height="48.6px" dominant-baseline="mathematical" alignment-baseline="mathematical" stroke="none" stroke-width="2px" fill="#1d1d1d"><tspan alignment-baseline="mathematical" x="0.6064453125px" y="18.2578125px">result</tspan></text></g></g><g transform="matrix(1, 0, 0, 1, 808.94, 336.52)" opacity="1"><g><text font-size="36px" font-family="'tldraw_draw', sans-serif" font-style="normal" font-weight="normal" line-height="48.6px" dominant-baseline="mathematical" alignment-baseline="mathematical" stroke="rgb(249, 250, 251)" stroke-width="2px" fill="rgb(249, 250, 251)"><tspan alignment-baseline="mathematical" x="0.6904296875px" y="18.2578125px">Arti[]</tspan></text><text font-size="36px" font-family="'tldraw_draw', sans-serif" font-style="normal" font-weight="normal" line-height="48.6px" dominant-baseline="mathematical" alignment-baseline="mathematical" stroke="none" stroke-width="2px" fill="#1d1d1d"><tspan alignment-baseline="mathematical" x="0.6904296875px" y="18.2578125px">Arti[]</tspan></text></g></g></svg>